:SAMPLES-PER-SECOND 30
:FULLY-SPECIFIED
:DEGREES
474
root  -33.2976 39.0714 -31.9719 -9.41891 -81.461 3.85081
RightUpLeg  3.15817 -9.61826 -4.68016
RightLeg  28.6115 -3.24331 -2.15922
RightFoot  -24.3694 0.0419145 1.8133
RightToes  0.000482159 0.542163 -0.142577
Spine  25.9449 -1.06881 8.44372
Spine1  12.8144 3.05777 -7.53852
HEad  1.62482 56.0794 -24.9095
LeftShoulder1  9.31 -13.2242 -48.5878
LeftArm  -9.31374 30.4781 -20.543
LeftForeArm  9.98638 -23.5601 -4.51846
LeftHand  -0.25398 0.0180481 5.50724
RightShoulder  6.21183 10.4741 38.3807
RightArm  8.4688 -12.8336 32.6447
RightForeArm  -12.2371 27.1462 6.46524
RightHand  -1.46191 2.74952 -20.9253
LeftUpLeg  -15.2598 3.35014 2.17642
LeftLeg  -3.72531 14.1232 -6.5562
LeftFoot  16.3603 0.568824 -2.73202
LeftToes  1.06247e-005 4.65855e-005 -8.18501e-006
475
root  -32.6297 39.1402 -32.2087 -5.18666 -80.1891 -1.03018
RightUpLeg  2.86604 -9.96875 -3.44743
RightLeg  28.3707 -4.01709 -2.59056
RightFoot  -23.5157 0.013743 1.61849
RightToes  0.000482159 0.542163 -0.142577
Spine  24.5181 -1.36076 9.89735
Spine1  13.1966 3.01648 -7.72554
HEad  4.02104 53.801 -22.5671
LeftShoulder1  9.30347 -13.1046 -48.9043
LeftArm  -9.58039 30.244 -23.0494
LeftForeArm  13.2849 -23.2649 -4.29538
LeftHand  -0.25398 0.0180481 5.50724
RightShoulder  6.09864 10.2767 38.2028
RightArm  5.69945 -11.384 32.0553
RightForeArm  -13.3199 27.9174 6.70474
RightHand  -1.6429 3.35404 -21.8391
LeftUpLeg  -15.5161 3.18001 2.62041
LeftLeg  -3.12497 13.1654 -5.91888
LeftFoot  13.0687 0.931142 -4.66445
LeftToes  1.06247e-005 4.65855e-005 -8.18501e-006
476
root  -32.0696 39.2988 -32.4049 -5.32161 -78.4027 -1.48909
RightUpLeg  3.0787 -11.5527 -3.37716
RightLeg  27.5846 -4.25627 -2.65113
RightFoot  -22.2818 -0.0674686 0.866404
RightToes  0.000482159 0.542163 -0.142577
Spine  23.0303 -1.45377 10.2085
Spine1  13.2825 2.71562 -7.35838
HEad  6.82771 49.3273 -19.0626
LeftShoulder1  9.27018 -13.0456 -48.9027
LeftArm  -8.58651 29.9358 -25.5339
LeftForeArm  17.516 -22.6817 -4.00332
LeftHand  -0.25398 0.0180481 5.50724
RightShoulder  5.90823 9.97629 37.7929
RightArm  3.88402 -11.1142 31.9292
RightForeArm  -15.1684 29.4433 7.17436
RightHand  -2.09371 4.73428 -24.0161
LeftUpLeg  -15.7024 2.71778 2.07228
LeftLeg  -1.15819 10.8005 -5.14094
LeftFoot  10.2646 0.920201 -5.13845
LeftToes  1.06247e-005 4.65855e-005 -8.18501e-006
477
root  -31.6279 39.518 -32.562 -8.21518 -76.843 0.981537
RightUpLeg  3.75052 -13.2509 -4.17141
RightLeg  26.1114 -4.20181 -2.48409
RightFoot  -21.0168 -0.130843 0.14008
RightToes  0.000482159 0.542163 -0.142577
Spine  21.4945 -1.17751 9.62214
Spine1  13.1008 2.62348 -6.90869
HEad  9.25772 43.0653 -15.4772
LeftShoulder1  9.2104 -13.0235 -48.651
LeftArm  -6.88226 29.6499 -27.4986
LeftForeArm  22.0889 -22.2816 -3.76001
LeftHand  -0.25398 0.0180481 5.50724
RightShoulder  5.72168 9.66009 37.4422
RightArm  3.26116 -11.801 32.0353
RightForeArm  -15.8799 31.241 7.67554
RightHand  -2.47169 5.82975 -25.569
LeftUpLeg  -15.8473 3.4439 0.271513
LeftLeg  2.86879 6.08985 -3.79067
LeftFoot  8.59604 0.748618 -4.55697
LeftToes  1.06247e-005 4.65855e-005 -8.18501e-006
478
root  -31.304 39.7389 -32.6587 -11.1527 -76.0235 3.82431
RightUpLeg  4.32256 -14.144 -5.11015
RightLeg  24.4032 -3.94195 -2.13456
RightFoot  -19.8957 -0.143092 -0.110174
RightToes  0.000482159 0.542163 -0.142577
Spine  19.6716 -0.639936 8.99629
Spine1  12.8813 2.97958 -6.91493
HEad  10.754 36.0135 -12.6245
LeftShoulder1  9.12176 -12.9835 -48.2968
LeftArm  -5.6123 29.6003 -28.8561
LeftForeArm  25.5086 -22.3134 -3.6128
LeftHand  -0.25398 0.0180481 5.50724
RightShoulder  5.59474 9.40344 37.3269
RightArm  3.62126 -12.8645 32.1693
RightForeArm  -14.5406 32.6576 7.9936
RightHand  -2.45129 5.7825 -25.4432
LeftUpLeg  -15.9167 6.19593 -2.28171
LeftLeg  8.34198 -0.695844 -1.98032
LeftFoot  6.75891 0.557 -3.75143
LeftToes  1.06247e-005 4.65855e-005 -8.18501e-006
479
root  -31.0666 39.9326 -32.6754 -12.8743 -75.9686 5.82056
RightUpLeg  4.4775 -14.1906 -5.79079
RightLeg  22.7572 -3.74132 -1.52824
RightFoot  -18.8319 -0.148173 -0.321272
RightToes  0.000482159 0.542163 -0.142577
Spine  17.5787 -0.0564179 8.83582
Spine1  12.6008 3.6325 -7.42116
HEad  11.1422 28.9363 -10.6261
LeftShoulder1  8.99878 -12.8567 -48.0117
LeftArm  -5.43025 29.9632 -29.8223
LeftForeArm  26.5042 -22.5949 -3.57714
LeftHand  -0.25398 0.0180481 5.50724
RightShoulder  5.5322 9.24196 37.3833
RightArm  4.8085 -13.9796 32.2924
RightForeArm  -12.4138 33.4011 8.09387
RightHand  -2.17799 4.99169 -24.3629
LeftUpLeg  -15.635 6.86454 -3.58829
LeftLeg  13.6778 -3.8392 -0.866167
LeftFoot  3.67748 0.367721 -2.95199
LeftToes  1.06247e-005 4.65855e-005 -8.18501e-006
480
root  -30.8665 40.1073 -32.6224 -13.858 -76.3817 7.37009
RightUpLeg  4.31418 -13.9617 -6.34527
RightLeg  21.1321 -3.52434 -0.720289
RightFoot  -17.7136 -0.158794 -0.699662
RightToes  0.000482159 0.542163 -0.142577
Spine  15.5552 0.462134 8.85152
Spine1  12.0559 4.26798 -8.06021
HEad  10.2291 22.2143 -9.38316
LeftShoulder1  8.84605 -12.6165 -47.8975
LeftArm  -6.12271 30.5504 -30.5417
LeftForeArm  25.1772 -22.7478 -3.6446
LeftHand  -0.25398 0.0180481 5.50724
RightShoulder  5.54934 9.22165 37.58
RightArm  6.72755 -15.0152 32.3979
RightForeArm  -11.14 33.4551 8.04383
RightHand  -1.93238 4.23981 -23.3332
LeftUpLeg  -15.0038 4.40026 -3.49408
LeftLeg  18.3511 -1.66922 -0.258258
LeftFoot  0.297523 0.221786 -2.20145
LeftToes  1.06247e-005 4.65855e-005 -8.18501e-006
481
root  -30.6955 40.2315 -32.524 -14.5147 -77.0177 8.6857
RightUpLeg  3.88888 -13.5947 -6.80032
RightLeg  19.8987 -3.23469 0.0546021
RightFoot  -16.7964 -0.15638 -0.893721
RightToes  0.000482159 0.542163 -0.142577
Spine  13.7947 0.847297 8.8126
Spine1  11.3116 4.70324 -8.53877
HEad  8.16872 15.7798 -8.57298
LeftShoulder1  8.69027 -12.3395 -47.8747
LeftArm  -7.12584 30.899 -31.0127
LeftForeArm  22.8733 -22.4746 -3.73789
LeftHand  -0.25398 0.0180481 5.50724
RightShoulder  5.65892 9.34818 37.9877
RightArm  9.05006 -15.743 32.5748
RightForeArm  -10.9422 32.6961 7.82433
RightHand  -1.77685 3.80395 -22.4909
LeftUpLeg  -14.1506 2.5099 -3.44741
LeftLeg  22.5507 0.793389 0.679658
LeftFoot  -2.21054 0.152113 -1.75042
LeftToes  1.06247e-005 4.65855e-005 -8.18501e-006
482
root  -30.5574 40.2924 -32.3961 -14.1609 -77.9109 8.90764
RightUpLeg  3.25491 -13.1597 -6.90398
RightLeg  19.2168 -2.74442 0.652621
RightFoot  -16.1459 -0.146183 -0.881736
RightToes  0.000482159 0.542163 -0.142577
Spine  12.179 1.072 8.96167
Spine1  10.6554 4.98423 -8.93086
HEad  5.52657 9.62441 -7.63057
LeftShoulder1  8.57468 -12.1514 -47.8037
LeftArm  -8.04741 30.817 -31.2218
LeftForeArm  21.1891 -21.7513 -3.79281
LeftHand  -0.25398 0.0180481 5.50724
RightShoulder  5.80029 9.5175 38.4815
RightArm  11.2799 -16.0651 33.0878
RightForeArm  -11.1177 31.0534 7.39316
RightHand  -1.65762 3.53147 -21.6447
LeftUpLeg  -12.4109 1.39054 -3.20867
LeftLeg  25.1575 1.96399 1.32538
LeftFoot  -4.34562 0.113921 -1.43178
LeftToes  1.06247e-005 4.65855e-005 -8.18501e-006
483
root  -30.4451 40.3495 -32.2457 -12.7203 -79.1822 7.89743
RightUpLeg  2.75621 -12.7337 -6.65129
RightLeg  18.4342 -1.99777 1.11081
RightFoot  -15.375 -0.137458 -0.95417
RightToes  0.000482159 0.542163 -0.142577
Spine  10.6348 1.22986 9.21654
Spine1  10.1579 5.16871 -9.34365
HEad  2.80113 3.97654 -6.28828
LeftShoulder1  8.53892 -12.1048 -47.7452
LeftArm  -8.63944 30.4956 -31.1228
LeftForeArm  20.7821 -20.8524 -3.81811
LeftHand  -0.25398 0.0180481 5.50724
RightShoulder  5.89779 9.63453 38.8123
RightArm  13.0168 -16.2081 34.0057
RightForeArm  -11.1496 28.9296 6.84981
RightHand  -1.52283 3.1503 -20.7856
LeftUpLeg  -9.44552 0.982066 -2.76136
LeftLeg  24.5411 2.14288 1.39477
LeftFoot  -7.05621 0.0712228 -0.721724
LeftToes  1.06247e-005 4.65855e-005 -8.18501e-006
484
root  -30.3475 40.4538 -32.093 -12.1307 -80.5291 7.68312
RightUpLeg  2.52298 -12.2388 -6.45852
RightLeg  17.2105 -1.28834 1.34016
RightFoot  -14.3557 -0.12413 -1.02173
RightToes  0.000482159 0.542163 -0.142577
Spine  9.22099 1.33725 8.69089
Spine1  9.70721 5.03275 -9.37491
HEad  0.0924003 -0.74936 -4.77747
LeftShoulder1  8.58847 -12.1516 -47.8807
LeftArm  -8.76913 29.9725 -30.5854
LeftForeArm  21.087 -20.0218 -3.85083
LeftHand  -0.25398 0.0180481 5.50724
RightShoulder  5.98406 9.74374 39.0803
RightArm  13.9287 -16.2891 34.9462
RightForeArm  -10.4775 26.8567 6.30937
RightHand  -1.34048 2.51539 -19.7665
LeftUpLeg  -6.25261 1.41455 -2.62622
LeftLeg  20.9614 2.22244 1.27283
LeftFoot  -9.3066 0.0473613 0.437573
LeftToes  1.06247e-005 4.65855e-005 -8.18501e-006
485
root  -30.2379 40.5916 -31.9776 -14.3238 -81.1995 10.3668
RightUpLeg  2.17497 -11.6716 -6.64926
RightLeg  16.1056 -1.1665 1.17309
RightFoot  -13.4099 -0.106756 -0.883924
RightToes  0.000482159 0.542163 -0.142577
Spine  7.92884 1.15472 6.5796
Spine1  9.30737 4.20369 -8.37301
HEad  -2.54556 -4.24891 -3.34616
LeftShoulder1  8.6463 -12.2016 -48.0527
LeftArm  -8.68331 28.9618 -29.6501
LeftForeArm  21.413 -19.1398 -3.92778
LeftHand  -0.25398 0.0180481 5.50724
RightShoulder  6.12483 9.89523 39.5943
RightArm  13.5055 -16.1275 35.6207
RightForeArm  -8.51312 24.8085 5.73622
RightHand  -1.17894 2.00083 -18.6168
LeftUpLeg  -4.30465 2.66841 -3.06047
LeftLeg  16.671 1.98037 0.945144
LeftFoot  -9.18216 0.02318 1.58764
LeftToes  1.06247e-005 4.65855e-005 -8.18501e-006
486
root  -30.1016 40.7412 -31.9115 -17.779 -80.9235 14.482
RightUpLeg  1.55806 -11.1675 -7.08435
RightLeg  15.366 -1.77599 0.767859
RightFoot  -12.6449 -0.094025 -0.755158
RightToes  0.000482159 0.542163 -0.142577
Spine  6.76057 0.567513 3.32063
Spine1  8.93947 2.73798 -6.38019
HEad  -4.75786 -6.61733 -1.99066
LeftShoulder1  8.5639 -12.1577 -47.7229
LeftArm  -8.83582 27.3692 -28.6688
LeftForeArm  21.8764 -18.0076 -4.05143
LeftHand  -0.25398 0.0180481 5.50724
RightShoulder  6.2443 9.97643 40.1752
RightArm  10.6662 -15.8531 36.2187
RightForeArm  -5.12495 22.5473 5.26398
RightHand  -1.17382 2.23597 -17.9909
LeftUpLeg  -3.74775 3.91427 -3.62025
LeftLeg  13.3427 1.11241 0.0753223
LeftFoot  -6.90157 -0.0483416 2.32735
LeftToes  1.06247e-005 4.65855e-005 -8.18501e-006
487
root  -29.9556 40.8794 -31.849 -20.0008 -80.6145 17.3382
RightUpLeg  0.978243 -10.7205 -7.4211
RightLeg  14.656 -2.40988 0.510799
RightFoot  -11.9615 -0.085255 -0.8129
RightToes  0.000482159 0.542163 -0.142577
Spine  5.88677 -0.0528573 0.497735
Spine1  8.42698 1.36386 -4.3917
HEad  -6.2529 -8.33457 -0.706519
LeftShoulder1  8.25418 -11.9398 -46.6217
LeftArm  -9.33684 25.4984 -27.8536
LeftForeArm  22.8412 -16.9005 -4.14387
LeftHand  -0.25398 0.0180481 5.50724
RightShoulder  6.20658 9.87686 40.233
RightArm  4.75564 -16.0518 36.6949
RightForeArm  -0.998119 20.4668 5.29227
RightHand  -1.34114 3.15274 -18.3697
LeftUpLeg  -3.40454 4.27552 -3.69444
LeftLeg  10.7172 0.531106 -1.26093
LeftFoot  -4.67251 -0.109675 2.38168
LeftToes  1.06247e-005 4.65855e-005 -8.18501e-006
488
root  -29.8112 40.9961 -31.736 -21.9612 -81.3703 19.6517
RightUpLeg  0.768596 -10.1356 -7.51752
RightLeg  13.5505 -2.25897 0.566818
RightFoot  -11.2612 -0.0758591 -0.75806
RightToes  0.000482159 0.542163 -0.142577
Spine  5.39858 -0.215585 -0.726402
Spine1  7.79974 0.82077 -3.3982
HEad  -7.28414 -9.81175 0.371518
LeftShoulder1  7.78644 -11.5578 -45.0446
LeftArm  -9.96739 23.6115 -26.9214
LeftForeArm  23.9826 -16.3881 -4.10216
LeftHand  -0.25398 0.0180481 5.50724
RightShoulder  6.04384 9.71093 39.6182
RightArm  -1.17685 -16.7729 36.3194
RightForeArm  0.861132 19.1273 5.35837
RightHand  -1.58197 4.16474 -19.3835
LeftUpLeg  -2.36058 3.75923 -3.08874
LeftLeg  7.854 1.43459 -2.79448
LeftFoot  -3.84904 -0.0810555 1.58585
LeftToes  1.06247e-005 4.65855e-005 -8.18501e-006
